<?xml version="1.0" encoding="iso-8859-1"?>
<!-- Generator: Adobe Illustrator 21.0.0, SVG Export Plug-In . SVG Version: 6.00 Build 0)  -->
<svg version="1.1" id="Layer_1" xmlns="http://www.w3.org/2000/svg" xmlns:xlink="http://www.w3.org/1999/xlink" x="0px" y="0px"
	 viewBox="0 0 960 960" style="enable-background:new 0 0 960 960;" xml:space="preserve">
<path d="M755.433,207.278c-0.815-0.988-1.723-1.896-2.711-2.711c-0.988-0.815-2.055-1.537-3.189-2.153
	c-2.834-1.54-6.081-2.414-9.533-2.414H617.117C602.533,130.452,546.232,80,480,80c-66.232,0-122.533,50.452-137.117,120H220
	c-3.452,0-6.699,0.875-9.533,2.414c-1.134,0.616-2.201,1.338-3.189,2.153c-0.988,0.815-1.896,1.724-2.711,2.711
	C201.714,210.735,200,215.167,200,220v640c0,11.046,8.954,20,20,20h520c11.046,0,20-8.954,20-20V220
	C760,215.167,758.286,210.735,755.433,207.278z M240,400h120v440H240V400z M400,400h160v440H400V400z M600,400h120v440H600V400z
	 M480,120c44.507,0,82.843,33.139,95.959,80H384.04C397.156,153.139,435.493,120,480,120z M622.119,240H720v120H240V240h97.881
	H622.119z"/>
<rect style="fill:none;" width="960" height="960"/>
</svg>
