<?xml version="1.0" encoding="iso-8859-1"?>
<!-- Generator: Adobe Illustrator 21.0.0, SVG Export Plug-In . SVG Version: 6.00 Build 0)  -->
<svg version="1.1" id="Layer_1" xmlns="http://www.w3.org/2000/svg" xmlns:xlink="http://www.w3.org/1999/xlink" x="0px" y="0px"
	 viewBox="0 0 960 960" style="enable-background:new 0 0 960 960;" xml:space="preserve">
<g>
	<path d="M189.474,560c0.009,0,0.018,0,0.027,0c5.51,0,9.985-4.46,10-9.974L200.474,180H700v30c0,5.523,4.477,10,10,10
		s10-4.477,10-10v-40c0-5.523-4.477-10-10-10H190.526c-0.009,0-0.018,0-0.027,0H190c-5.523,0-10,4.477-10,10
		c0,1.079,0.176,2.116,0.492,3.089L179.5,549.974C179.485,555.497,183.951,559.985,189.474,560z"/>
	<path d="M790,400c-5.523,0-10,4.477-10,10v370H280v-30c0-5.523-4.477-10-10-10s-10,4.477-10,10v40c0,5.523,4.477,10,10,10h520
		c5.523,0,10-4.477,10-10V410C800,404.477,795.523,400,790,400z"/>
	<path d="M828.396,254.567c-3-4.637-9.192-5.963-13.828-2.963l-680,440c-4.637,3-5.963,9.191-2.963,13.828
		c1.914,2.958,5.125,4.568,8.405,4.568c1.861,0,3.745-0.519,5.423-1.605l680-440C830.069,265.396,831.396,259.204,828.396,254.567z"
		/>
</g>
<rect x="0" y="0" style="fill:none;" width="960" height="960"/>
</svg>
