<?xml version="1.0" encoding="iso-8859-1"?>
<!-- Generator: Adobe Illustrator 21.0.0, SVG Export Plug-In . SVG Version: 6.00 Build 0)  -->
<svg version="1.1" id="Layer_1" xmlns="http://www.w3.org/2000/svg" xmlns:xlink="http://www.w3.org/1999/xlink" x="0px" y="0px"
	 viewBox="0 0 960 960" style="enable-background:new 0 0 960 960;" xml:space="preserve">
<g>
	<path style="fill:#121212;" d="M925.825,496.073c-5.371-6.266-54.751-62.829-133.439-118.76
		c-45.853-32.593-92.724-58.552-139.312-77.159C594.667,276.828,536.436,265,479.997,265c-56.438,0-114.668,11.828-173.074,35.154
		c-46.587,18.606-93.458,44.566-139.31,77.159C88.923,433.246,39.546,489.808,34.178,496.069l-20.527,23.932l20.523,23.929
		c5.371,6.265,54.747,62.825,133.439,118.759c45.852,32.592,92.723,58.551,139.31,77.158C365.329,763.173,423.56,775,479.997,775
		c56.439,0,114.67-11.827,173.076-35.153c46.588-18.606,93.459-44.565,139.312-77.158
		c78.689-55.932,128.068-112.494,133.436-118.755l20.527-23.933L925.825,496.073z M478.431,728.889c-115.794,0-210-94.206-210-210
		s94.206-210,210-210s210,94.206,210,210S594.226,728.889,478.431,728.889z M66.383,520.001
		c9.679-10.938,55.626-61.198,124.404-110.086c34.636-24.62,69.784-45.175,104.816-61.342
		c-41.646,44.676-67.173,104.566-67.173,170.316c0,67.697,27.06,129.184,70.915,174.245
		c-36.271-16.417-72.689-37.552-108.559-63.048C122.013,581.201,76.069,530.947,66.383,520.001z M769.211,630.086
		c-37.709,26.804-76.026,48.8-114.139,65.548c45.299-45.273,73.358-107.793,73.358-176.745c0-66.968-26.472-127.867-69.497-172.792
		c36.839,16.525,73.841,37.92,110.277,63.818c68.771,48.883,114.719,99.14,124.405,110.086
		C883.937,530.94,837.988,581.2,769.211,630.086z"/>
	<circle style="fill:#121212;" cx="478.385" cy="520.714" r="120"/>
</g>
<rect style="fill:none;" width="960" height="960"/>
</svg>
